<?xml version="1.0" standalone="no"?>
<!DOCTYPE svg PUBLIC "-//W3C//DTD SVG 20010904//EN"
 "http://www.w3.org/TR/2001/REC-SVG-20010904/DTD/svg10.dtd">
<svg version="1.0" xmlns="http://www.w3.org/2000/svg"
 width="700.000000pt" height="700.000000pt" viewBox="0 0 700.000000 700.000000"
 preserveAspectRatio="xMidYMid meet">
<metadata>
Created by potrace 1.11, written by Peter Selinger 2001-2013
</metadata>
<g transform="translate(0.000000,700.000000) scale(0.100000,-0.100000)"
fill="#000000" stroke="none">
<path d="M5990 6994 c-14 -2 -116 -18 -190 -29 -19 -4 -75 -15 -125 -26 -49
-11 -98 -22 -107 -24 -110 -24 -479 -142 -563 -180 -16 -8 -68 -29 -115 -48
-47 -19 -129 -56 -182 -81 -88 -42 -103 -53 -151 -114 -119 -148 -253 -371
-384 -637 l-75 -150 6 70 c9 128 51 289 130 499 15 38 24 71 22 73 -4 4 -196
-96 -321 -167 -22 -13 -60 -34 -85 -48 -25 -13 -70 -39 -100 -56 -30 -17 -67
-38 -83 -45 -38 -20 -110 -95 -149 -156 -71 -112 -153 -331 -188 -504 -13 -68
-18 -79 -22 -55 -8 37 -3 121 11 201 11 60 69 270 91 328 6 15 8 30 6 33 -10
9 -408 -265 -446 -307 -3 -3 -54 -49 -115 -101 -148 -128 -339 -321 -485 -489
-105 -121 -161 -200 -194 -274 -33 -71 -93 -245 -103 -297 -35 -183 -39 -230
-37 -378 1 -86 4 -166 7 -177 4 -17 10 -63 23 -164 l2 -23 -24 23 c-51 48 -83
206 -89 439 -2 69 -3 132 -4 140 -1 14 -215 -199 -341 -340 -101 -114 -239
-287 -306 -385 -95 -140 -140 -230 -189 -380 -47 -142 -57 -180 -101 -395 -34
-167 -30 -147 -59 -321 -14 -85 -28 -165 -30 -179 -3 -14 -7 -47 -11 -75 -6
-51 -10 -62 -20 -53 -24 25 -23 239 2 428 l4 35 -15 -26 c-8 -15 -26 -66 -40
-114 -42 -146 -50 -200 -50 -360 0 -71 4 -147 8 -168 9 -49 -7 -47 -27 3 -32
81 -53 212 -71 445 -1 17 -3 35 -4 40 -4 20 -64 -225 -86 -350 -2 -16 -7 -39
-9 -50 -2 -11 -7 -45 -11 -75 -4 -30 -9 -63 -11 -74 -27 -147 -22 -448 10
-558 l12 -43 52 0 53 -1 41 81 c60 118 289 509 383 655 23 36 86 135 140 220
54 85 141 218 193 295 53 77 134 196 180 265 113 166 231 331 371 520 115 155
319 421 330 430 3 3 33 39 66 80 49 63 205 248 240 286 6 6 51 55 100 109 103
112 266 273 340 335 28 23 61 52 75 64 64 58 550 419 750 557 334 232 771 506
1040 651 36 19 90 49 120 65 30 17 96 52 145 78 234 124 338 187 532 322 166
115 594 465 728 595 l50 49 -97 -65 c-53 -35 -100 -66 -105 -68 -4 -2 -80 -51
-168 -109 -88 -58 -166 -109 -174 -114 -17 -10 -22 -17 99 165 52 80 103 159
113 175 10 17 -88 -78 -218 -210 -131 -132 -235 -235 -232 -230 2 6 72 125
154 266 162 277 157 261 83 253z"/>
<path d="M6465 6623 c-44 -41 -120 -109 -170 -151 -49 -42 -92 -79 -95 -82
-17 -21 -490 -388 -730 -566 -191 -142 -185 -138 -420 -303 -89 -63 -176 -124
-193 -137 -18 -12 -88 -57 -157 -100 -198 -122 -501 -327 -654 -441 -143 -107
-267 -203 -276 -213 -3 -3 -27 -24 -55 -45 -54 -43 -52 -41 -235 -201 -236
-205 -659 -622 -834 -824 -22 -25 -72 -81 -111 -125 -198 -220 -570 -690 -749
-948 -109 -156 -310 -461 -408 -617 -113 -182 -264 -438 -338 -573 l-20 -37
105 0 c93 0 110 3 143 23 71 45 219 98 582 208 355 107 658 264 896 464 26 22
54 46 63 53 24 18 -18 2 -106 -42 -187 -93 -336 -152 -471 -186 -82 -20 -109
-22 -322 -21 -58 1 -114 -1 -125 -3 -11 -2 -45 -7 -75 -10 -30 -4 -104 -17
-163 -30 -107 -22 -142 -19 -101 11 20 14 148 57 199 66 17 3 64 12 105 21 41
8 95 17 120 20 100 12 290 57 380 91 25 9 52 18 60 20 46 11 235 94 405 176
262 127 475 248 850 484 55 34 106 73 67 51 -25 -15 -300 -104 -337 -110 -21
-4 -41 -8 -45 -11 -4 -2 -25 -7 -46 -11 -53 -8 -734 -11 -734 -2 0 3 28 9 63
13 34 4 69 9 77 10 8 2 42 6 75 9 416 46 507 66 825 181 102 37 241 87 310
112 169 60 253 98 331 148 182 117 360 317 473 529 20 38 34 71 32 73 -2 3
-28 0 -58 -6 -29 -6 -71 -13 -93 -15 -22 -3 -62 -8 -90 -12 -273 -35 -747 -35
-805 1 -8 5 -42 11 -155 30 -77 13 -396 14 -455 1 -14 -3 -56 -7 -95 -10 l-70
-5 45 15 c66 21 238 62 290 69 25 3 86 5 135 4 298 -5 541 2 564 15 3 2 33 7
66 11 33 3 92 13 130 22 39 8 84 17 100 20 53 8 285 73 435 120 355 113 638
252 857 422 81 63 178 159 169 168 -3 4 -152 -14 -271 -32 -122 -18 -130 -15
-35 14 52 17 103 35 112 40 10 6 23 11 29 11 19 0 354 158 348 165 -2 1 -42
-5 -89 -15 -47 -10 -103 -21 -125 -24 -22 -2 -69 -9 -105 -14 -36 -6 -94 -13
-130 -16 l-65 -6 95 25 c124 34 281 87 402 137 145 60 268 173 395 363 70 104
152 283 176 386 l6 25 -117 -33 c-64 -19 -132 -36 -152 -39 -19 -3 -51 -9 -70
-14 -19 -5 -60 -12 -90 -15 -30 -3 -68 -7 -85 -10 -38 -6 -344 -7 -370 -1 -11
2 -31 5 -44 5 -42 2 -19 9 49 16 140 14 156 15 180 20 14 2 48 7 75 10 71 8
287 60 372 89 180 61 369 167 413 231 33 48 75 155 61 155 -5 0 -37 -9 -72
-21 -67 -21 -280 -74 -339 -84 -19 -3 -46 -7 -60 -10 -14 -3 -47 -7 -75 -10
-27 -4 -57 -8 -65 -10 -8 -2 -46 -6 -85 -9 l-70 -5 65 13 c139 28 384 107 520
169 128 57 230 109 237 120 9 15 11 227 2 227 -4 0 -38 -14 -75 -31 -38 -17
-78 -35 -89 -39 -31 -14 -195 -67 -243 -80 -24 -6 -51 -14 -60 -17 -17 -5 54
42 326 217 148 96 147 95 142 165 -4 54 -63 166 -94 178 -6 3 -47 -29 -91 -70z"/>
<path d="M6190 6487 c-23 -20 -190 -124 -565 -349 -187 -113 -374 -225 -415
-250 -41 -25 -142 -85 -225 -134 -258 -152 -300 -178 -495 -303 -253 -162
-383 -252 -614 -421 -171 -127 -524 -400 -572 -445 -6 -5 -38 -33 -71 -62
-213 -185 -480 -461 -729 -753 -163 -191 -487 -605 -600 -765 -7 -11 -35 -50
-61 -86 -328 -450 -645 -947 -1010 -1581 -84 -147 -156 -274 -159 -283 -4 -9
2 -18 17 -24 13 -5 47 -18 75 -29 l51 -21 42 109 c114 298 698 1228 1101 1755
26 33 75 98 111 145 56 74 273 341 332 410 12 14 53 61 91 105 38 44 72 82 75
85 3 3 21 23 40 45 94 110 590 618 685 700 21 19 201 180 241 216 131 120 452
377 666 533 121 89 448 309 564 381 77 47 374 239 425 274 14 9 77 53 140 96
130 89 512 365 520 375 3 3 32 26 65 51 81 59 295 230 295 235 0 7 -5 4 -20
-9z"/>
<path d="M6528 1804 c-2 -1 -32 -5 -68 -9 -36 -4 -72 -9 -81 -10 -9 -2 -40 -6
-70 -10 -30 -3 -92 -13 -139 -21 -47 -8 -98 -16 -115 -19 -463 -78 -1001 -226
-1476 -406 -172 -65 -495 -200 -639 -267 -107 -50 -480 -222 -540 -250 -232
-105 -689 -280 -915 -350 -112 -35 -342 -101 -371 -106 -11 -2 -37 -9 -59 -14
-22 -6 -51 -13 -65 -16 -14 -3 -65 -14 -115 -25 -49 -11 -103 -22 -120 -25
-16 -3 -41 -8 -55 -11 -14 -3 -41 -8 -60 -11 -19 -3 -46 -7 -60 -10 -45 -8
-304 -45 -340 -49 -136 -13 -177 -17 -190 -20 -8 -2 -69 -7 -135 -10 -66 -4
-140 -9 -165 -10 -25 -2 -73 -5 -108 -6 -49 -2 -68 -7 -87 -25 -31 -29 -31
-39 -1 -68 20 -21 31 -24 82 -21 299 16 408 23 464 30 19 2 82 9 140 15 125
13 167 18 240 30 30 5 75 12 100 15 25 4 54 8 65 10 11 2 38 6 60 10 235 37
611 129 920 227 325 103 569 200 1060 425 330 152 313 144 450 203 66 29 134
58 150 66 17 7 77 31 135 54 58 23 119 47 135 54 43 19 198 77 360 134 456
161 895 272 1375 347 93 15 163 24 215 30 124 13 180 25 193 42 18 25 15 39
-15 63 -22 17 -39 21 -90 19 -34 -1 -64 -3 -65 -5z"/>
<path d="M526 929 c-15 -34 -23 -65 -19 -69 9 -8 265 -110 276 -110 7 0 57
104 57 119 0 4 -62 32 -137 62 -76 30 -141 55 -144 57 -3 1 -18 -25 -33 -59z"/>
<path d="M459 736 c-10 -17 -49 -82 -87 -144 l-68 -114 18 -81 c28 -131 22
-265 -17 -362 -5 -11 12 5 38 36 70 86 153 155 229 191 78 38 68 17 131 268
l34 136 -130 51 -129 51 -19 -32z m76 -290 c40 -40 13 -96 -47 -96 -40 0 -65
40 -48 80 11 27 25 36 58 39 7 0 24 -10 37 -23z"/>
</g>
</svg>
